<svg width="881" height="119" viewBox="0 0 881 119" fill="none" xmlns="http://www.w3.org/2000/svg">
<rect width="881" height="119" fill="white"/>
<path d="M113.879 59.78C113.879 91.2269 88.3863 116.72 56.9395 116.72C25.4927 116.72 0 91.2269 0 59.78C0 28.3332 25.4927 2.84055 56.9395 2.84055C88.3863 2.84055 113.879 28.3332 113.879 59.78Z" fill="#A0D98C"/>
<path d="M113.879 59.78C113.879 44.6788 107.88 30.196 97.2018 19.5178C86.5236 8.83953 72.0408 2.84055 56.9395 2.84055C41.8382 2.84054 27.3554 8.83953 16.6772 19.5178C5.99897 30.196 2.28023e-06 44.6788 0 59.78L56.9395 59.7801L113.879 59.78Z" fill="#CEFFBD"/>
<path d="M16.6772 19.5178C5.99897 30.196 2.28023e-06 44.6788 0 59.78C7.02886e-07 74.8813 5.99896 89.3641 16.6772 100.042C27.3554 110.721 41.8382 116.72 56.9395 116.72C72.0408 116.72 86.5236 110.721 97.2018 100.042L56.9395 59.7801L16.6772 19.5178Z" fill="#AEEC98"/>
<path d="M16.6772 100.042C27.3554 110.721 41.8382 116.72 56.9395 116.72C72.0408 116.72 86.5236 110.721 97.2018 100.042C107.88 89.3641 113.879 74.8813 113.879 59.78C113.879 44.6788 107.88 30.196 97.2018 19.5178L56.9395 59.7801L16.6772 100.042Z" fill="#7FBB6A"/>
<path d="M154.521 99V24.461H170.281V86.0066H202.236V99H154.521ZM237.859 100.092C232.108 100.092 227.159 98.9272 223.009 96.5979C218.884 94.2443 215.706 90.9201 213.474 86.6254C211.241 82.3064 210.125 77.1988 210.125 71.3027C210.125 65.5521 211.241 60.5052 213.474 56.1619C215.706 51.8187 218.848 48.4338 222.9 46.0074C226.977 43.581 231.757 42.3678 237.24 42.3678C240.928 42.3678 244.362 42.9623 247.54 44.1512C250.743 45.3159 253.533 47.0751 255.911 49.4287C258.313 51.7823 260.182 54.7425 261.516 58.3093C262.851 61.8518 263.518 66.001 263.518 70.7567V75.015H216.313V65.4065H248.923C248.923 63.1742 248.438 61.1967 247.467 59.474C246.497 57.7512 245.15 56.4046 243.428 55.434C241.729 54.4392 239.752 53.9418 237.495 53.9418C235.141 53.9418 233.055 54.4877 231.235 55.5796C229.439 56.6472 228.032 58.0909 227.013 59.9107C225.994 61.7062 225.472 63.708 225.448 65.916V75.0514C225.448 77.8175 225.957 80.2075 226.977 82.2214C228.02 84.2354 229.488 85.7883 231.38 86.8801C233.273 87.972 235.517 88.518 238.114 88.518C239.836 88.518 241.414 88.2753 242.845 87.79C244.277 87.3048 245.502 86.5768 246.521 85.6063C247.54 84.6357 248.317 83.4468 248.851 82.0395L263.191 82.9858C262.463 86.4313 260.97 89.44 258.714 92.012C256.482 94.5597 253.594 96.5493 250.052 97.9809C246.533 99.3882 242.469 100.092 237.859 100.092ZM303.372 43.0958V54.7425H269.705V43.0958H303.372ZM277.349 29.702H292.853V81.8211C292.853 83.2527 293.072 84.3688 293.508 85.1695C293.945 85.946 294.552 86.4919 295.328 86.8073C296.129 87.1228 297.051 87.2805 298.094 87.2805C298.822 87.2805 299.55 87.2198 300.278 87.0985C301.006 86.9529 301.564 86.8437 301.952 86.7709L304.391 98.3085C303.614 98.5511 302.522 98.8302 301.115 99.1456C299.708 99.4853 297.997 99.6915 295.983 99.7643C292.247 99.9099 288.971 99.4125 286.156 98.2721C283.366 97.1317 281.194 95.3604 279.642 92.9583C278.089 90.5561 277.324 87.5231 277.349 83.8593V29.702ZM343.207 43.0958V54.7425H309.541V43.0958H343.207ZM317.184 29.702H332.689V81.8211C332.689 83.2527 332.907 84.3688 333.344 85.1695C333.781 85.946 334.387 86.4919 335.164 86.8073C335.964 87.1228 336.886 87.2805 337.93 87.2805C338.658 87.2805 339.386 87.2198 340.113 87.0985C340.841 86.9529 341.399 86.8437 341.788 86.7709L344.226 98.3085C343.45 98.5511 342.358 98.8302 340.951 99.1456C339.543 99.4853 337.833 99.6915 335.819 99.7643C332.082 99.9099 328.806 99.4125 325.992 98.2721C323.201 97.1317 321.03 95.3604 319.477 92.9583C317.924 90.5561 317.16 87.5231 317.184 83.8593V29.702ZM389.157 75.197V43.0958H404.662V99H389.776V88.8455H389.193C387.932 92.1212 385.833 94.7538 382.897 96.7434C379.985 98.7331 376.431 99.7279 372.233 99.7279C368.496 99.7279 365.208 98.8787 362.37 97.1802C359.531 95.4817 357.311 93.0675 355.709 89.9374C354.132 86.8073 353.331 83.0586 353.307 78.691V43.0958H368.812V75.9249C368.836 79.2248 369.722 81.8332 371.469 83.7501C373.216 85.6669 375.557 86.6254 378.493 86.6254C380.361 86.6254 382.108 86.2007 383.734 85.3515C385.36 84.478 386.67 83.192 387.665 81.4935C388.684 79.795 389.181 77.6962 389.157 75.197ZM442.322 100.092C436.596 100.092 431.671 98.8787 427.546 96.4523C423.445 94.0016 420.291 90.6047 418.083 86.2614C415.899 81.9181 414.807 76.9198 414.807 71.2663C414.807 65.54 415.911 60.5173 418.119 56.1983C420.351 51.8551 423.518 48.4702 427.618 46.0438C431.719 43.5932 436.596 42.3678 442.25 42.3678C447.127 42.3678 451.397 43.2535 455.061 45.0247C458.725 46.796 461.624 49.2831 463.76 52.4859C465.895 55.6888 467.072 59.4497 467.29 63.7687H452.659C452.246 60.9783 451.155 58.7339 449.383 57.0354C447.636 55.3127 445.343 54.4513 442.504 54.4513C440.102 54.4513 438.003 55.1064 436.208 56.4167C434.437 57.7027 433.054 59.5831 432.059 62.0581C431.064 64.533 430.567 67.5296 430.567 71.0479C430.567 74.6147 431.052 77.6477 432.022 80.1469C433.017 82.6461 434.412 84.5508 436.208 85.861C438.003 87.1713 440.102 87.8264 442.504 87.8264C444.276 87.8264 445.865 87.4625 447.272 86.7346C448.704 86.0066 449.881 84.9511 450.803 83.5681C451.749 82.1608 452.368 80.4744 452.659 78.5091H467.29C467.047 82.7795 465.883 86.5404 463.796 89.7918C461.734 93.0189 458.883 95.5424 455.243 97.3622C451.603 99.182 447.297 100.092 442.322 100.092ZM502.694 100.092C496.944 100.092 491.994 98.9272 487.845 96.5979C483.72 94.2443 480.541 90.9201 478.309 86.6254C476.077 82.3064 474.961 77.1988 474.961 71.3027C474.961 65.5521 476.077 60.5052 478.309 56.1619C480.541 51.8187 483.683 48.4338 487.736 46.0074C491.812 43.581 496.592 42.3678 502.076 42.3678C505.764 42.3678 509.197 42.9623 512.376 44.1512C515.579 45.3159 518.369 47.0751 520.747 49.4287C523.149 51.7823 525.017 54.7425 526.352 58.3093C527.686 61.8518 528.354 66.001 528.354 70.7567V75.015H481.148V65.4065H513.759C513.759 63.1742 513.273 61.1967 512.303 59.474C511.332 57.7512 509.986 56.4046 508.263 55.434C506.564 54.4392 504.587 53.9418 502.33 53.9418C499.977 53.9418 497.89 54.4877 496.07 55.5796C494.275 56.6472 492.867 58.0909 491.848 59.9107C490.829 61.7062 490.308 63.708 490.283 65.916V75.0514C490.283 77.8175 490.793 80.2075 491.812 82.2214C492.855 84.2354 494.323 85.7883 496.216 86.8801C498.108 87.972 500.353 88.518 502.949 88.518C504.672 88.518 506.249 88.2753 507.681 87.79C509.112 87.3048 510.337 86.5768 511.357 85.6063C512.376 84.6357 513.152 83.4468 513.686 82.0395L528.026 82.9858C527.298 86.4313 525.806 89.44 523.549 92.012C521.317 94.5597 518.43 96.5493 514.887 97.9809C511.369 99.3882 507.304 100.092 502.694 100.092ZM588.189 48.5552C587.679 46.7839 586.963 45.2189 586.041 43.8601C585.119 42.477 583.991 41.3124 582.656 40.3661C581.346 39.3955 579.842 38.6555 578.143 38.1459C576.469 37.6364 574.613 37.3816 572.575 37.3816C568.765 37.3816 565.417 38.3279 562.529 40.2205C559.666 42.1131 557.434 44.867 555.832 48.4824C554.231 52.0734 553.43 56.4652 553.43 61.6577C553.43 66.8502 554.219 71.2663 555.796 74.9059C557.373 78.5455 559.606 81.3237 562.493 83.2405C565.38 85.1331 568.789 86.0794 572.72 86.0794C576.287 86.0794 579.332 85.4486 581.856 84.1868C584.403 82.9008 586.344 81.0932 587.679 78.7638C589.038 76.4345 589.717 73.6805 589.717 70.5019L592.92 70.9751H573.703V59.11H604.894V68.5002C604.894 75.0514 603.511 80.6807 600.745 85.3879C597.979 90.0709 594.17 93.6862 589.317 96.2339C584.464 98.7574 578.908 100.019 572.647 100.019C565.659 100.019 559.521 98.4783 554.231 95.3968C548.942 92.291 544.817 87.8871 541.856 82.1851C538.92 76.4588 537.453 69.6648 537.453 61.8033C537.453 55.7616 538.326 50.375 540.073 45.6435C541.844 40.8877 544.319 36.8599 547.498 33.56C550.676 30.2601 554.377 27.7488 558.599 26.026C562.821 24.3033 567.394 23.4419 572.32 23.4419C576.542 23.4419 580.473 24.0607 584.112 25.2981C587.752 26.5113 590.979 28.2341 593.793 30.4664C596.632 32.6986 598.95 35.3555 600.745 38.4371C602.541 41.4943 603.693 44.867 604.203 48.5552H588.189ZM616.441 99V43.0958H631.472V52.8499H632.055C633.074 49.3801 634.784 46.7596 637.187 44.9884C639.589 43.1928 642.355 42.295 645.485 42.295C646.261 42.295 647.098 42.3436 647.996 42.4406C648.894 42.5377 649.683 42.6711 650.362 42.841V56.5987C649.634 56.3803 648.627 56.1862 647.341 56.0163C646.055 55.8465 644.878 55.7616 643.811 55.7616C641.53 55.7616 639.492 56.259 637.696 57.2538C635.925 58.2244 634.518 59.5831 633.474 61.3302C632.455 63.0772 631.946 65.0911 631.946 67.3719V99H616.441ZM681.035 100.092C675.381 100.092 670.492 98.8908 666.367 96.4887C662.266 94.0623 659.1 90.6896 656.868 86.3706C654.635 82.0273 653.519 76.9926 653.519 71.2663C653.519 65.4914 654.635 60.4445 656.868 56.1255C659.1 51.7823 662.266 48.4096 666.367 46.0074C670.492 43.581 675.381 42.3678 681.035 42.3678C686.688 42.3678 691.565 43.581 695.666 46.0074C699.791 48.4096 702.969 51.7823 705.202 56.1255C707.434 60.4445 708.55 65.4914 708.55 71.2663C708.55 76.9926 707.434 82.0273 705.202 86.3706C702.969 90.6896 699.791 94.0623 695.666 96.4887C691.565 98.8908 686.688 100.092 681.035 100.092ZM681.107 88.0812C683.679 88.0812 685.827 87.3533 687.55 85.8974C689.272 84.4173 690.57 82.4034 691.444 79.8557C692.342 77.308 692.791 74.4084 692.791 71.1571C692.791 67.9057 692.342 65.0061 691.444 62.4584C690.57 59.9107 689.272 57.8968 687.55 56.4167C685.827 54.9366 683.679 54.1965 681.107 54.1965C678.511 54.1965 676.327 54.9366 674.556 56.4167C672.809 57.8968 671.487 59.9107 670.589 62.4584C669.716 65.0061 669.279 67.9057 669.279 71.1571C669.279 74.4084 669.716 77.308 670.589 79.8557C671.487 82.4034 672.809 84.4173 674.556 85.8974C676.327 87.3533 678.511 88.0812 681.107 88.0812ZM728.258 99L713.045 43.0958H728.732L737.394 80.6564H737.903L746.93 43.0958H762.325L771.497 80.438H771.97L780.487 43.0958H796.137L780.96 99H764.545L754.937 63.8415H754.245L744.637 99H728.258Z" fill="#274E18"/>
</svg>
